<?xml version="1.0" encoding="UTF-8" standalone="no"?>
<svg
   id="svg"
   version="1.1"
   width="400"
   height="400"
   viewBox="0, 0, 400,400"
   sodipodi:docname="image2vector.svg"
   inkscape:version="1.4.3 (0d15f75, 2025-12-25)"
   xmlns:inkscape="http://www.inkscape.org/namespaces/inkscape"
   xmlns:sodipodi="http://sodipodi.sourceforge.net/DTD/sodipodi-0.dtd"
   xmlns="http://www.w3.org/2000/svg"
   xmlns:svg="http://www.w3.org/2000/svg">
  <defs
     id="defs1" />
  <sodipodi:namedview
     id="namedview1"
     pagecolor="#ffffff"
     bordercolor="#000000"
     borderopacity="0.25"
     inkscape:showpageshadow="2"
     inkscape:pageopacity="0.0"
     inkscape:pagecheckerboard="0"
     inkscape:deskcolor="#d1d1d1"
     inkscape:zoom="1.5002195"
     inkscape:cx="96.98581"
     inkscape:cy="169.64185"
     inkscape:window-width="1728"
     inkscape:window-height="1080"
     inkscape:window-x="0"
     inkscape:window-y="37"
     inkscape:window-maximized="0"
     inkscape:current-layer="svg" />
  <path
     d="m 98.081059,2.8302468 c -16.769003,0.936 -25.496003,2.3649999 -36.133003,5.9180007 -25.219,8.4230005 -44.465,27.6380005 -53.1149999,53.0270005 -3.2690004,9.597 -5.2240004,22.485 -5.8660004,38.681002 -0.261,6.586 -0.261,194.285 0,200.337 1.143,26.491 6.0770004,44.109 16.5050003,58.928 17.44,24.787 41.49,35.956 80.367003,37.324 7.904001,0.279 192.187001,0.267 200.391001,-0.013 37.305,-1.269 60.303,-11.205 77.747,-33.588 11.809,-15.152 16.795,-30.216 18.974,-57.324 0.373,-4.644 0.369,-205.619 -0.005,-210.743002 -2.226,-30.537 -8.511,-47.434 -23.847,-64.111 -15.653,-17.022 -35.408,-25.6660013 -64.471,-28.2090012 -2.37,-0.207 -206.945,-0.427 -210.547001,-0.227"
     id="path6" />
  <path
     d="m 204.47085,90.2336 c 1.58209,0.43782 2.71087,1.82619 3.67562,4.52285 1.45036,4.05662 2.28984,4.78115 5.53151,4.77857 4.89868,-0.004 6.95863,-0.81365 9.34662,-3.67175 2.85551,-3.41861 3.3295,-3.47156 11.3859,-1.2618 11.54217,3.16677 27.819,10.71819 32.20366,14.94141 2.57396,2.47969 1.20626,2.65404 -5.52506,0.70646 -11.34845,-3.28559 -13.49493,-3.3295 -16.79084,-0.34484 -2.97305,2.6915 -6.16435,2.48357 -8.66858,-0.56697 -3.46252,-4.21676 -7.81102,-3.68466 -9.52613,1.16623 -1.38837,3.92747 -5.83502,4.93613 -8.89459,2.01991 -4.41566,-4.20901 -9.01341,-2.94979 -9.46931,2.59464 -0.46236,5.609 -4.46344,7.7064 -8.6505,4.53447 -2.71732,-2.05737 -4.1948,-2.40866 -6.22246,-1.47878 -2.80386,1.28634 -3.38374,2.97176 -2.36862,6.88889 1.39482,5.3817 -2.94334,8.37928 -8.07319,5.578 -5.79369,-3.16289 -10.62133,1.55239 -7.17431,7.00641 1.92305,3.04408 1.97342,4.55772 0.2273,6.84368 -1.62471,2.1284 -3.35661,2.44095 -6.70032,1.20756 -3.79056,-1.39741 -5.7769,-0.72841 -7.43519,2.50552 -1.06678,2.07803 -0.49077,3.95458 2.01862,6.57634 2.53006,2.64242 2.82194,3.6175 1.8546,6.20309 -1.16623,3.11769 -2.8271,4.05274 -6.40198,3.6033 -4.03983,-0.50627 -5.75753,0.52952 -6.68095,4.03207 -0.65867,2.49519 0.30608,4.11861 3.56196,5.99646 3.10865,1.7939 3.66142,2.68762 3.43282,5.5483 -0.27896,3.4664 -1.6415,4.80698 -5.58317,5.49148 -4.36528,0.7594 -6.28963,3.1009 -5.48631,6.67578 0.54372,2.42286 1.45423,3.04795 6.26638,4.30975 4.83281,1.26567 4.95937,8.62854 0.1821,10.50251 -5.04203,1.97859 -6.13594,3.60201 -5.0007,7.42357 0.79298,2.67341 2.33245,3.52322 6.39036,3.5258 3.2985,0.001 4.26584,0.47786 5.30421,2.60626 1.76032,3.61104 1.22951,5.55088 -2.26014,8.24109 -3.35791,2.58946 -3.92359,4.3175 -2.39574,7.30733 1.51881,2.97175 3.57101,3.66399 7.16914,2.42157 3.86935,-1.33671 5.85568,-0.52952 7.71287,3.13706 1.10811,2.18652 0.84464,3.46769 -1.24243,6.0507 -2.964,3.66916 -3.13319,5.64 -0.7,8.15843 2.24464,2.32471 4.22451,2.25626 8.21784,-0.28801 2.31955,-1.47748 4.29684,-1.27084 6.2948,0.65738 2.23817,2.16069 2.39961,3.72728 0.75682,7.37578 -1.71512,3.80994 -1.25664,6.00033 1.63762,7.83685 2.23431,1.41678 4.36012,0.90018 6.85402,-1.66604 2.77286,-2.85294 4.94387,-3.12415 7.76452,-0.97251 1.83006,1.39612 2.23947,3.24168 1.44778,6.5221 -0.74262,3.07507 -0.33838,4.64812 1.5653,6.09073 2.95367,2.2356 5.31454,1.61309 7.76323,-2.04703 2.02766,-3.03116 2.73153,-3.4961 5.08078,-3.35145 3.64204,0.22343 4.95292,1.71899 5.25642,5.99128 0.27896,3.90164 1.21014,5.27321 3.97267,5.8531 2.8878,0.60572 4.72303,-0.61088 6.07007,-4.02562 1.33799,-3.3889 2.4474,-4.34978 5.02395,-4.34978 2.94721,0 4.03853,0.87951 5.08981,4.1031 0.80978,2.47711 1.22952,3.26364 2.16457,4.05016 1.61954,1.36383 5.01749,1.01383 6.49497,-0.669 0.72324,-0.82527 0.89501,-1.30958 1.68541,-4.7876 0.67546,-2.96917 2.18781,-4.21676 5.16214,-4.25938 2.02121,-0.0284 2.77028,0.47914 4.54997,3.08282 2.50294,3.66399 5.56768,4.00624 8.27467,0.92213 0.85627,-0.97509 0.96863,-1.40128 1.21272,-4.58613 0.34483,-4.4996 4.28263,-6.88501 7.43003,-4.50089 0.57859,0.43782 1.50202,1.13781 2.0522,1.55626 1.57305,1.19335 2.71086,1.26438 4.6817,0.29446 2.67341,-1.31604 3.13965,-2.28079 3.05311,-6.31416 -0.11106,-5.16989 2.47065,-7.23501 6.92892,-5.53926 4.65329,1.76807 8.18427,-1.43615 7.12911,-6.46656 -0.84206,-4.01529 1.21659,-6.90309 4.92192,-6.90309 4.57451,0 7.64441,-4.34979 13.61633,-19.29637 2.95883,-7.40548 3.70791,-7.69219 3.6175,-1.38836 -0.14723,10.39531 -3.91067,26.09742 -9.3789,39.13128 -3.44961,8.22688 -3.72987,8.44385 -9.71211,7.51785 -4.64554,-0.71808 -5.46952,-0.50111 -7.84331,2.06382 -4.65458,5.02653 -4.88576,6.91988 -1.42711,11.6907 3.30754,4.56417 3.41732,6.15918 0.65738,9.6062 -4.56547,5.70199 -5.70845,5.88797 -12.47335,2.02508 -4.63263,-2.64629 -6.28575,-2.39574 -10.42115,1.57951 -3.58134,3.44057 -3.71178,4.28392 -1.5653,10.15768 2.4771,6.78169 2.25755,7.67412 -2.7212,11.02945 -5.20089,3.50643 -5.92026,3.4199 -11.16247,-1.34188 -5.24222,-4.76306 -6.2018,-4.96583 -11.24125,-2.37766 -4.71528,2.42287 -4.90126,2.81548 -4.65846,9.88001 0.25443,7.4029 0.0103,7.79552 -6.09461,9.78056 -5.76269,1.87527 -6.63445,1.47361 -10.4121,-4.79794 -3.4212,-5.68003 -4.0889,-6.05715 -9.55842,-5.39073 -5.959,0.72582 -6.6435,1.33283 -8.1029,7.18463 -1.98375,7.95179 -2.6308,8.55622 -9.15935,8.54201 -5.92929,-0.0129 -6.43944,-0.4856 -8.35086,-7.74902 -1.86494,-7.08778 -2.29372,-7.4791 -8.96046,-8.16618 -4.83023,-0.49723 -5.48114,-0.14078 -8.49293,4.64812 -4.32783,6.88242 -5.23834,7.39903 -10.24034,5.81952 -6.33224,-2.00054 -6.947,-2.73153 -6.77006,-8.0422 0.30867,-9.20842 0.22989,-9.42798 -4.31233,-11.92575 -5.49665,-3.02341 -6.77911,-2.77932 -12.78331,2.43578 -4.57838,3.97525 -5.92284,4.04241 -10.85251,0.54372 -4.82894,-3.42507 -5.10015,-4.652 -2.41641,-10.94033 2.44224,-5.72395 2.30017,-6.81139 -1.38191,-10.59808 -4.79793,-4.93226 -5.57284,-5.05495 -12.51467,-1.99279 -6.39811,2.82193 -7.33574,2.55717 -11.77852,-3.32563 -2.86068,-3.78798 -2.779315,-4.64166 0.90664,-9.57392 4.75919,-6.3684 4.82893,-6.78814 1.95663,-11.88313 -2.95626,-5.24479 -4.075991,-5.75623 -10.485726,-4.79019 -6.726153,1.01384 -7.887215,0.39391 -10.23517,-5.46564 -1.997957,-4.98908 -1.518809,-6.29867 3.775067,-10.29845 5.712322,-4.31621 6.002911,-5.11049 4.258089,-11.6597 -1.111985,-4.17285 -2.07803,-4.87285 -8.322453,-6.021 -6.885008,-1.26438 -7.461019,-1.80423 -8.05382,-7.54755 -0.627671,-6.08686 0.02196,-7.00511 6.686117,-9.44993 6.289625,-2.30663 6.750692,-2.8736 6.909547,-8.48648 0.152398,-5.40107 0.0039,-5.609 -6.390362,-8.91525 -6.245714,-3.22747 -6.788146,-4.25034 -5.320997,-10.03369 1.380618,-5.44369 2.057366,-5.90089 9.201967,-6.22247 5.992579,-0.26863 6.949584,-0.86531 8.336659,-5.19701 1.748697,-5.46307 1.464566,-6.28446 -3.843516,-11.10307 -4.512516,-4.09535 -4.8341,-5.22284 -2.685037,-9.38406 3.133189,-6.06232 4.154768,-6.53114 10.581293,-4.86381 5.565092,1.44519 7.129102,1.06549 9.700492,-2.34924 3.22488,-4.28392 3.18355,-5.73816 -0.30867,-10.93259 -3.94038,-5.85955 -3.90422,-7.3577 0.27896,-11.5525 3.43282,-3.44444 4.80956,-3.67691 8.99533,-1.51623 5.62966,2.90589 5.85955,3.00017 7.31508,3.00146 1.70737,0 3.23263,-0.7749 5.5031,-2.7974 2.98595,-2.65921 3.19518,-4.04757 1.42065,-9.3789 -2.12452,-6.38262 -1.84685,-7.51656 2.53522,-10.33591 5.18797,-3.33854 6.29092,-3.21714 11.09919,1.22176 4.97616,4.59517 6.28962,4.87285 11.2335,2.38283 3.99333,-2.00958 4.15348,-2.36087 4.15348,-9.09219 0,-7.07099 0.13302,-7.28279 5.64516,-8.91784 5.50439,-1.63375 6.48335,-1.19335 9.91101,4.45053 3.18355,5.24221 4.29167,5.95641 8.36249,5.38557 5.62191,-0.7904 6.37874,-1.51752 8.0861,-7.78519 1.31088,-4.81085 1.89593,-5.79756 3.86031,-6.49885 1.18947,-0.42361 6.83851,-0.48173 8.27854,-0.084"
     id="path5"
     style="fill:#ffffff;stroke-width:1.2915" />
  <path
     d="m 171.07255,116.82309 c -18.98769,4.18189 -45.1639,23.69135 -56.60662,42.19086 -10.12152,16.36206 -14.17039,27.41605 -16.74177,45.7102 -1.374161,9.77411 -0.330625,27.48838 2.189099,37.18112 3.227471,12.41393 7.798101,22.9694 14.313741,33.06121 6.28058,9.7289 18.63253,22.27199 28.4428,28.88707 28.84703,19.44618 64.03664,23.23029 96.12923,10.33462 15.11318,-6.07394 31.36676,-17.27774 27.81771,-19.17625 -1.51623,-0.81236 -5.08465,0.65608 -10.81506,4.44923 -24.37068,16.13088 -52.03212,20.73639 -80.98764,13.4833 -33.52874,-8.39865 -63.10935,-39.80157 -70.09768,-74.41905 -4.87155,-24.13692 -2.49518,-43.02129 8.38445,-66.59254 2.59721,-5.63095 9.81801,-16.26132 14.61466,-21.51904 7.92467,-8.68665 21.76055,-19.33769 29.51345,-22.72014 0.45461,-0.1976 2.24722,-1.00479 3.98171,-1.79131 1.7332,-0.78653 4.45052,-1.93597 6.03778,-2.5546 4.81473,-1.87785 8.7564,-4.73982 8.54717,-6.20826 -0.10332,-0.72712 -2.21363,-0.86918 -4.72303,-0.31642"
     id="path4"
     style="fill:#000000;stroke-width:1.2915" />
  <path
     d="m 267.24958,47.159359 c 0.43652,0.468816 1.22176,1.929507 1.7629,3.276546 1.99279,4.965833 2.7664,5.57284 7.63408,5.98483 6.20955,0.52435 6.5673,1.472314 2.0974,5.557347 -3.80348,3.476729 -4.21676,4.752735 -3.01695,9.30787 1.64667,6.249589 0.54114,6.86047 -5.74203,3.169352 -3.35145,-1.969544 -4.66233,-1.895929 -8.75898,0.485605 -5.20089,3.023411 -6.02099,2.468065 -4.83539,-3.276546 1.11715,-5.412694 0.79944,-6.509181 -2.73928,-9.465434 -4.88964,-4.083741 -4.48927,-5.372662 1.79648,-5.792401 4.42082,-0.295754 5.45015,-0.914385 6.92634,-4.165101 0.44169,-0.971211 1.11844,-2.46419 1.5046,-3.317874 1.23855,-2.734114 2.06641,-3.168059 3.37083,-1.764194"
     id="path3"
     style="fill:#ffffff;stroke-width:1.2915" />
  <path
     d="m 135.71375,47.049581 c 0.37841,0.405532 1.1249,1.841685 1.65959,3.191306 1.98246,5.009745 3.00533,5.811769 7.86526,6.16435 6.26767,0.454609 6.52209,1.251467 1.84943,5.80015 -3.77507,3.675621 -3.99333,4.283919 -3.02341,8.410275 1.64925,7.019325 0.91438,7.513971 -5.5031,3.704034 -3.1616,-1.877847 -4.63521,-1.773236 -8.88167,0.623796 -5.22155,2.948504 -5.98483,2.333748 -4.6675,-3.759568 1.08357,-5.009745 1.03191,-5.164725 -3.06603,-9.129643 -4.54868,-4.40016 -4.2865,-5.19056 1.8546,-5.627089 5.10919,-0.361621 5.76657,-0.85885 7.7684,-5.873761 1.69187,-4.238716 2.67858,-5.073028 4.14443,-3.50385"
     id="path2"
     style="fill:#ffffff;stroke-width:1.2915" />
  <path
     d="m 201.64246,32.926983 c 0.54243,0.644461 0.94538,1.500728 2.57267,5.459188 0.96347,2.345372 2.61013,3.293336 6.35291,3.65754 6.4149,0.626379 6.88759,1.799065 2.31309,5.731695 -3.64334,3.131898 -4.08632,4.602921 -2.86456,9.511928 1.34575,5.407533 0.33192,6.333541 -4.03208,3.680792 -5.0769,-3.084117 -5.93317,-3.128028 -10.34236,-0.529517 -5.58317,3.28817 -6.45752,2.583008 -4.77082,-3.85127 1.05774,-4.037242 0.44945,-5.800145 -3.01179,-8.71507 -4.64424,-3.910675 -4.17155,-5.32358 1.9463,-5.81306 4.81344,-0.383577 5.66712,-1.055159 7.61988,-5.989996 1.48523,-3.753111 2.84776,-4.768234 4.21676,-3.14223"
     id="path1"
     style="fill:#ffffff;stroke-width:1.2915" />
</svg>
