<?xml version="1.0" encoding="UTF-8" standalone="no"?>
<svg
   id="svg"
   version="1.1"
   width="400"
   height="400"
   viewBox="0, 0, 400,400"
   sodipodi:docname="icon.svg"
   inkscape:version="1.4.3 (0d15f75, 2025-12-25)"
   xmlns:inkscape="http://www.inkscape.org/namespaces/inkscape"
   xmlns:sodipodi="http://sodipodi.sourceforge.net/DTD/sodipodi-0.dtd"
   xmlns="http://www.w3.org/2000/svg"
   xmlns:svg="http://www.w3.org/2000/svg">
  <defs
     id="defs1">
    <filter
       style="color-interpolation-filters:sRGB;"
       inkscape:label="Invert"
       id="filter1"
       x="0"
       y="0"
       width="1"
       height="1">
      <feColorMatrix
         values="1 0 0 0 0 0 1 0 0 0 0 0 1 0 0 -0.21 -0.72 -0.07 2 0 "
         result="fbSourceGraphic"
         id="feColorMatrix1" />
      <feColorMatrix
         result="fbSourceGraphicAlpha"
         in="fbSourceGraphic"
         values="0 0 0 -1 0 0 0 0 -1 0 0 0 0 -1 0 0 0 0 1 0"
         id="feColorMatrix6" />
      <feColorMatrix
         id="feColorMatrix7"
         values="1 0 0 0 0 0 1 0 0 0 0 0 1 0 0 -0.21 -0.72 -0.07 2 0 "
         result="color2"
         in="fbSourceGraphic" />
    </filter>
    <filter
       style="color-interpolation-filters:sRGB;"
       inkscape:label="Invert"
       id="filter2"
       x="0"
       y="0"
       width="1"
       height="1">
      <feColorMatrix
         values="1 0 0 0 0 0 1 0 0 0 0 0 1 0 0 -0.21 -0.72 -0.07 2 0 "
         result="fbSourceGraphic"
         id="feColorMatrix2" />
      <feColorMatrix
         result="fbSourceGraphicAlpha"
         in="fbSourceGraphic"
         values="0 0 0 -1 0 0 0 0 -1 0 0 0 0 -1 0 0 0 0 1 0"
         id="feColorMatrix8" />
      <feColorMatrix
         id="feColorMatrix9"
         values="1 0 0 0 0 0 1 0 0 0 0 0 1 0 0 -0.21 -0.72 -0.07 2 0 "
         result="color2"
         in="fbSourceGraphic" />
    </filter>
    <filter
       style="color-interpolation-filters:sRGB;"
       inkscape:label="Invert"
       id="filter3"
       x="0"
       y="0"
       width="1"
       height="1">
      <feColorMatrix
         values="1 0 0 0 0 0 1 0 0 0 0 0 1 0 0 -0.21 -0.72 -0.07 2 0 "
         result="fbSourceGraphic"
         id="feColorMatrix3" />
      <feColorMatrix
         result="fbSourceGraphicAlpha"
         in="fbSourceGraphic"
         values="0 0 0 -1 0 0 0 0 -1 0 0 0 0 -1 0 0 0 0 1 0"
         id="feColorMatrix10" />
      <feColorMatrix
         id="feColorMatrix11"
         values="1 0 0 0 0 0 1 0 0 0 0 0 1 0 0 -0.21 -0.72 -0.07 2 0 "
         result="color2"
         in="fbSourceGraphic" />
    </filter>
    <filter
       style="color-interpolation-filters:sRGB;"
       inkscape:label="Invert"
       id="filter4"
       x="0"
       y="0"
       width="1"
       height="1">
      <feColorMatrix
         values="1 0 0 0 0 0 1 0 0 0 0 0 1 0 0 -0.21 -0.72 -0.07 2 0 "
         result="fbSourceGraphic"
         id="feColorMatrix4" />
      <feColorMatrix
         result="fbSourceGraphicAlpha"
         in="fbSourceGraphic"
         values="0 0 0 -1 0 0 0 0 -1 0 0 0 0 -1 0 0 0 0 1 0"
         id="feColorMatrix12" />
      <feColorMatrix
         id="feColorMatrix13"
         values="1 0 0 0 0 0 1 0 0 0 0 0 1 0 0 -0.21 -0.72 -0.07 2 0 "
         result="color2"
         in="fbSourceGraphic" />
    </filter>
    <filter
       style="color-interpolation-filters:sRGB;"
       inkscape:label="Invert"
       id="filter5"
       x="0"
       y="0"
       width="1"
       height="1">
      <feColorMatrix
         values="1 0 0 0 0 0 1 0 0 0 0 0 1 0 0 -0.21 -0.72 -0.07 2 0 "
         result="fbSourceGraphic"
         id="feColorMatrix5" />
      <feColorMatrix
         result="fbSourceGraphicAlpha"
         in="fbSourceGraphic"
         values="0 0 0 -1 0 0 0 0 -1 0 0 0 0 -1 0 0 0 0 1 0"
         id="feColorMatrix14" />
      <feColorMatrix
         id="feColorMatrix15"
         values="1 0 0 0 0 0 1 0 0 0 0 0 1 0 0 -0.21 -0.72 -0.07 2 0 "
         result="color2"
         in="fbSourceGraphic" />
    </filter>
  </defs>
  <sodipodi:namedview
     id="namedview1"
     pagecolor="#ffffff"
     bordercolor="#000000"
     borderopacity="0.25"
     inkscape:showpageshadow="2"
     inkscape:pageopacity="0.0"
     inkscape:pagecheckerboard="0"
     inkscape:deskcolor="#d1d1d1"
     inkscape:zoom="1.5066834"
     inkscape:cx="97.897143"
     inkscape:cy="169.90962"
     inkscape:window-width="1728"
     inkscape:window-height="1051"
     inkscape:window-x="0"
     inkscape:window-y="38"
     inkscape:window-maximized="0"
     inkscape:current-layer="svg" />
  <path
     id="path5"
     style="fill:#000000;stroke-width:1.2915;filter:url(#filter1)"
     d="M 200.23828 89.966797 C 198.49733 89.984562 196.78614 90.106554 196.19141 90.318359 C 194.22703 91.019649 193.64291 92.005556 192.33203 96.816406 C 190.62467 103.08408 189.868 103.81116 184.24609 104.60156 C 180.17527 105.1724 179.06636 104.45901 175.88281 99.216797 C 172.45515 93.572917 171.47705 93.131875 165.97266 94.765625 C 160.46052 96.400675 160.32812 96.612604 160.32812 103.68359 C 160.32812 110.41491 160.16716 110.76581 156.17383 112.77539 C 151.22995 115.26541 149.91561 114.98775 144.93945 110.39258 C 140.13118 105.95368 139.02977 105.83334 133.8418 109.17188 C 129.45973 111.99123 129.18212 113.12519 131.30664 119.50781 C 133.08117 124.83914 132.87072 126.22556 129.88477 128.88477 C 127.6143 130.90727 126.09018 131.68359 124.38281 131.68359 C 122.92728 131.6823 122.69607 131.58753 117.06641 128.68164 C 112.88064 126.52096 111.50509 126.75283 108.07227 130.19727 C 103.88909 134.39207 103.85259 135.89045 107.79297 141.75 C 111.28519 146.94443 111.32644 148.39967 108.10156 152.68359 C 105.53017 156.09832 103.96548 156.47839 98.400391 155.0332 C 91.973866 153.36587 90.953502 153.83416 87.820312 159.89648 C 85.671249 164.0577 85.99139 165.18395 90.503906 169.2793 C 95.811988 174.09791 96.096353 174.91974 94.347656 180.38281 C 92.960581 184.71451 92.004298 185.31145 86.011719 185.58008 C 78.867118 185.90166 78.189212 186.35904 76.808594 191.80273 C 75.341445 197.58608 75.885145 198.60847 82.130859 201.83594 C 88.525121 205.14219 88.673882 205.35088 88.521484 210.75195 C 88.362629 216.36483 87.900953 216.93165 81.611328 219.23828 C 74.947171 221.6831 74.29811 222.60064 74.925781 228.6875 C 75.518582 234.43082 76.093508 234.97195 82.978516 236.23633 C 89.222939 237.38448 90.188796 238.08301 91.300781 242.25586 C 93.045603 248.80507 92.755291 249.59981 87.042969 253.91602 C 81.749093 257.9158 81.269621 259.22576 83.267578 264.21484 C 85.615533 270.07439 86.777753 270.69353 93.503906 269.67969 C 99.913641 268.71365 101.03202 269.22591 103.98828 274.4707 C 106.86058 279.56569 106.79239 279.98512 102.0332 286.35352 C 98.347248 291.28578 98.266273 292.13975 101.12695 295.92773 C 105.56973 301.81053 106.50619 302.07584 112.9043 299.25391 C 119.84613 296.19175 120.62199 296.31383 125.41992 301.24609 C 129.102 305.03278 129.24302 306.1198 126.80078 311.84375 C 124.11704 318.13208 124.38786 319.36009 129.2168 322.78516 C 134.14647 326.28385 135.49193 326.21548 140.07031 322.24023 C 146.07451 317.02513 147.35687 316.78128 152.85352 319.80469 C 157.39574 322.30246 157.47469 322.52205 157.16602 331.73047 C 156.98908 337.04114 157.60331 337.7729 163.93555 339.77344 C 168.93755 341.35295 169.84795 340.83555 174.17578 333.95312 C 177.18757 329.16422 177.83969 328.80746 182.66992 329.30469 C 189.33666 329.99177 189.76397 330.38292 191.62891 337.4707 C 193.54033 344.73412 194.05118 345.2078 199.98047 345.2207 C 206.50902 345.23491 207.15492 344.62952 209.13867 336.67773 C 210.59807 330.82593 211.28319 330.21996 217.24219 329.49414 C 222.71171 328.82772 223.37958 329.20474 226.80078 334.88477 C 230.57843 341.15632 231.4502 341.55691 237.21289 339.68164 C 243.3178 337.6966 243.56302 337.30524 243.30859 329.90234 C 243.06579 322.83781 243.25152 322.44435 247.9668 320.02148 C 253.00625 317.43331 253.96481 317.63733 259.20703 322.40039 C 264.44924 327.16217 265.16825 327.24862 270.36914 323.74219 C 275.34789 320.38686 275.5689 319.49458 273.0918 312.71289 C 270.94532 306.83913 271.07491 305.99526 274.65625 302.55469 C 278.79165 298.57944 280.44549 298.32832 285.07812 300.97461 C 291.84302 304.8375 292.98531 304.65121 297.55078 298.94922 C 300.31072 295.5022 300.20012 293.90792 296.89258 289.34375 C 293.43393 284.57293 293.66573 282.67887 298.32031 277.65234 C 300.6941 275.08741 301.51852 274.87176 306.16406 275.58984 C 312.1463 276.51584 312.42734 276.29719 315.87695 268.07031 C 321.34518 255.03645 325.10863 239.33476 325.25586 228.93945 C 325.34627 222.63562 324.59555 222.92264 321.63672 230.32812 C 315.6648 245.2747 312.59599 249.625 308.02148 249.625 C 304.31615 249.625 302.25755 252.51205 303.09961 256.52734 C 304.15477 261.55775 300.62399 264.76221 295.9707 262.99414 C 291.51243 261.29839 288.92996 263.36331 289.04102 268.5332 C 289.12756 272.56657 288.66169 273.53162 285.98828 274.84766 C 284.01744 275.81758 282.87969 275.74608 281.30664 274.55273 C 280.75646 274.13428 279.8325 273.43391 279.25391 272.99609 C 276.10651 270.61197 272.16905 272.99845 271.82422 277.49805 C 271.58013 280.6829 271.4676 281.10889 270.61133 282.08398 C 267.90434 285.16809 264.83888 284.8261 262.33594 281.16211 C 260.55625 278.55843 259.80832 278.04973 257.78711 278.07812 C 254.81278 278.12075 253.30046 279.36872 252.625 282.33789 C 251.8346 285.81591 251.66269 286.30168 250.93945 287.12695 C 249.46197 288.80978 246.0629 289.15875 244.44336 287.79492 C 243.50831 287.0084 243.08908 286.22125 242.2793 283.74414 C 241.22802 280.52055 240.13666 279.64258 237.18945 279.64258 C 234.6129 279.64258 233.50401 280.60329 232.16602 283.99219 C 230.81898 287.40693 228.9835 288.6233 226.0957 288.01758 C 223.33317 287.43769 222.40201 286.0657 222.12305 282.16406 C 221.81955 277.89177 220.50923 276.39531 216.86719 276.17188 C 214.51794 276.02722 213.81282 276.49228 211.78516 279.52344 C 209.33647 283.18356 206.97711 283.80591 204.02344 281.57031 C 202.11976 280.1277 201.71441 278.55554 202.45703 275.48047 C 203.24872 272.20005 202.83983 270.3551 201.00977 268.95898 C 198.18912 266.80734 196.017 267.0787 193.24414 269.93164 C 190.75024 272.49786 188.62493 273.01444 186.39062 271.59766 C 183.49637 269.76114 183.03879 267.56971 184.75391 263.75977 C 186.3967 260.11127 186.23426 258.54546 183.99609 256.38477 C 181.99813 254.45655 180.02072 254.24908 177.70117 255.72656 C 173.70784 258.27083 171.72902 258.34033 169.48438 256.01562 C 167.05119 253.49719 167.21959 251.52658 170.18359 247.85742 C 172.27066 245.27441 172.53389 243.99316 171.42578 241.80664 C 169.56859 238.14006 167.58224 237.33126 163.71289 238.66797 C 160.11476 239.91039 158.06373 239.2198 156.54492 236.24805 C 155.01707 233.25822 155.58154 231.52891 158.93945 228.93945 C 162.4291 226.24924 162.96149 224.31026 161.20117 220.69922 C 160.1628 218.57082 159.19498 218.0928 155.89648 218.0918 C 151.83857 218.08922 150.29884 217.23982 149.50586 214.56641 C 148.37062 210.74485 149.46383 209.12117 154.50586 207.14258 C 159.28313 205.26861 159.15703 197.9063 154.32422 196.64062 C 149.51207 195.37883 148.60231 194.75294 148.05859 192.33008 C 147.25527 188.7552 149.17964 186.4137 153.54492 185.6543 C 157.48659 184.9698 158.84799 183.63046 159.12695 180.16406 C 159.35555 177.30338 158.80396 176.40913 155.69531 174.61523 C 152.43943 172.73738 151.47414 171.11433 152.13281 168.61914 C 153.05623 165.11659 154.77462 164.07967 158.81445 164.58594 C 162.38933 165.03538 164.04861 164.10207 165.21484 160.98438 C 166.18218 158.39878 165.89139 157.42367 163.36133 154.78125 C 160.85194 152.15949 160.27502 150.28116 161.3418 148.20312 C 163.00009 144.9692 164.98678 144.30181 168.77734 145.69922 C 172.12105 146.93261 173.85381 146.61863 175.47852 144.49023 C 177.22464 142.20427 177.17305 140.69056 175.25 137.64648 C 171.80298 132.19246 176.63209 127.47773 182.42578 130.64062 C 187.55563 133.4419 191.89287 130.4442 190.49805 125.0625 C 189.48293 121.14537 190.06333 119.46017 192.86719 118.17383 C 194.89485 117.24395 196.37252 117.59497 199.08984 119.65234 C 203.2769 122.82427 207.27787 120.72814 207.74023 115.11914 C 208.19613 109.57471 212.79332 108.31443 217.20898 112.52344 C 220.26855 115.43966 224.71515 114.43138 226.10352 110.50391 C 227.81863 105.65302 232.16639 105.12113 235.62891 109.33789 C 238.13314 112.38843 241.32578 112.5958 244.29883 109.9043 C 247.59474 106.91964 249.74139 106.96441 261.08984 110.25 C 267.82116 112.19758 269.18724 112.02266 266.61328 109.54297 C 262.22862 105.31975 245.95233 97.768332 234.41016 94.601562 C 226.35376 92.391802 225.8809 92.444671 223.02539 95.863281 C 220.6374 98.721381 218.57641 99.531156 213.67773 99.535156 C 210.43606 99.537736 209.59684 98.812479 208.14648 94.755859 C 207.18173 92.059199 206.05279 90.672195 204.4707 90.234375 C 203.75069 90.03551 201.97923 89.949032 200.23828 89.966797 z M 173.64258 116.48828 C 174.88256 116.45886 175.73035 116.68422 175.79492 117.13867 C 176.00415 118.60711 172.06278 121.46981 167.24805 123.34766 C 165.66079 123.96629 162.94414 125.11581 161.21094 125.90234 C 159.47645 126.68886 157.68313 127.49576 157.22852 127.69336 C 149.47562 131.07581 135.63951 141.72741 127.71484 150.41406 C 122.91819 155.67178 115.69877 166.30264 113.10156 171.93359 C 102.22193 195.50484 99.845247 214.38847 104.7168 238.52539 C 111.70513 273.14287 141.28571 304.54666 174.81445 312.94531 C 203.76997 320.1984 231.4301 315.59182 255.80078 299.46094 C 261.53119 295.66779 265.10096 294.19936 266.61719 295.01172 C 270.16624 296.91023 253.91201 308.11356 238.79883 314.1875 C 206.70624 327.08317 171.51695 323.2997 142.66992 303.85352 C 132.85965 297.23844 120.50714 284.6957 114.22656 274.9668 C 107.71092 264.87499 103.14153 254.31823 99.914062 241.9043 C 97.394339 232.21156 96.350448 214.49872 97.724609 204.72461 C 100.29599 186.43046 104.34528 175.37573 114.4668 159.01367 C 125.90952 140.51416 152.08458 121.00416 171.07227 116.82227 C 172.01329 116.61498 172.89859 116.50594 173.64258 116.48828 z " />
  <path
     d="m 267.24958,47.159359 c 0.43652,0.468816 1.22176,1.929507 1.7629,3.276546 1.99279,4.965833 2.7664,5.57284 7.63408,5.98483 6.20955,0.52435 6.5673,1.472314 2.0974,5.557347 -3.80348,3.476729 -4.21676,4.752735 -3.01695,9.30787 1.64667,6.249589 0.54114,6.86047 -5.74203,3.169352 -3.35145,-1.969544 -4.66233,-1.895929 -8.75898,0.485605 -5.20089,3.023411 -6.02099,2.468065 -4.83539,-3.276546 1.11715,-5.412694 0.79944,-6.509181 -2.73928,-9.465434 -4.88964,-4.083741 -4.48927,-5.372662 1.79648,-5.792401 4.42082,-0.295754 5.45015,-0.914385 6.92634,-4.165101 0.44169,-0.971211 1.11844,-2.46419 1.5046,-3.317874 1.23855,-2.734114 2.06641,-3.168059 3.37083,-1.764194"
     id="path3"
     style="fill:#000000;stroke-width:1.2915;filter:url(#filter3)" />
  <path
     d="m 135.71375,47.049581 c 0.37841,0.405532 1.1249,1.841685 1.65959,3.191306 1.98246,5.009745 3.00533,5.811769 7.86526,6.16435 6.26767,0.454609 6.52209,1.251467 1.84943,5.80015 -3.77507,3.675621 -3.99333,4.283919 -3.02341,8.410275 1.64925,7.019325 0.91438,7.513971 -5.5031,3.704034 -3.1616,-1.877847 -4.63521,-1.773236 -8.88167,0.623796 -5.22155,2.948504 -5.98483,2.333748 -4.6675,-3.759568 1.08357,-5.009745 1.03191,-5.164725 -3.06603,-9.129643 -4.54868,-4.40016 -4.2865,-5.19056 1.8546,-5.627089 5.10919,-0.361621 5.76657,-0.85885 7.7684,-5.873761 1.69187,-4.238716 2.67858,-5.073028 4.14443,-3.50385"
     id="path2"
     style="fill:#000000;stroke-width:1.2915;filter:url(#filter4)" />
  <path
     d="m 201.64246,32.926983 c 0.54243,0.644461 0.94538,1.500728 2.57267,5.459188 0.96347,2.345372 2.61013,3.293336 6.35291,3.65754 6.4149,0.626379 6.88759,1.799065 2.31309,5.731695 -3.64334,3.131898 -4.08632,4.602921 -2.86456,9.511928 1.34575,5.407533 0.33192,6.333541 -4.03208,3.680792 -5.0769,-3.084117 -5.93317,-3.128028 -10.34236,-0.529517 -5.58317,3.28817 -6.45752,2.583008 -4.77082,-3.85127 1.05774,-4.037242 0.44945,-5.800145 -3.01179,-8.71507 -4.64424,-3.910675 -4.17155,-5.32358 1.9463,-5.81306 4.81344,-0.383577 5.66712,-1.055159 7.61988,-5.989996 1.48523,-3.753111 2.84776,-4.768234 4.21676,-3.14223"
     id="path1"
     style="fill:#000000;stroke-width:1.2915;filter:url(#filter5)" />
</svg>
